<svg xmlns="http://www.w3.org/2000/svg" viewBox="70.2 86.6 275.6 200.4" role="img" aria-label="Data Pública"><title>Data Pública</title><path fill="#F6F3EC" d="M 74.40625 239.515625 L 112.539062 239.515625 C 114.644531 239.515625 116.351562 237.804688 116.351562 235.699219 L 116.351562 186.125 C 116.351562 184.019531 118.0625 182.3125 120.167969 182.3125 L 154.488281 182.3125 C 156.59375 182.3125 158.300781 180.601562 158.300781 178.5 L 158.300781 151.804688 C 158.300781 149.699219 156.59375 147.992188 154.488281 147.992188 L 120.167969 147.992188 C 118.0625 147.992188 116.351562 146.28125 116.351562 144.175781 L 116.351562 125.109375 C 116.351562 123.003906 118.0625 121.296875 120.167969 121.296875 L 158.703125 121.296875 C 160.648438 121.296875 162.277344 119.835938 162.492188 117.902344 L 165.460938 91.207031 C 165.707031 88.949219 163.941406 86.972656 161.667969 86.972656 L 74.40625 86.972656 C 72.300781 86.972656 70.589844 88.683594 70.589844 90.789062 L 70.589844 235.699219 C 70.589844 237.804688 72.300781 239.515625 74.40625 239.515625 Z M 169.386719 90.367188 L 165.90625 121.714844 C 165.691406 123.648438 164.058594 125.109375 162.113281 125.109375 L 143.046875 125.109375 C 140.941406 125.109375 139.234375 126.816406 139.234375 128.921875 L 139.234375 140.363281 C 139.234375 142.46875 140.941406 144.175781 143.046875 144.175781 L 158.300781 144.175781 C 160.40625 144.175781 162.113281 145.886719 162.113281 147.992188 L 162.113281 182.3125 C 162.113281 184.417969 160.40625 186.125 158.300781 186.125 L 143.046875 186.125 C 140.941406 186.125 139.234375 187.832031 139.234375 189.9375 L 139.234375 235.699219 C 139.234375 237.804688 140.941406 239.515625 143.046875 239.515625 L 192.625 239.515625 C 230.53125 239.515625 261.265625 205.367188 261.265625 163.246094 C 261.265625 121.121094 230.53125 86.972656 192.625 86.972656 L 173.179688 86.972656 C 171.238281 86.972656 169.605469 88.433594 169.386719 90.367188 Z M 192.625 121.296875 C 205.261719 121.296875 215.503906 140.078125 215.503906 163.246094 C 215.503906 186.410156 205.261719 205.191406 192.625 205.191406 L 188.808594 205.191406 C 186.703125 205.191406 184.996094 203.484375 184.996094 201.378906 L 184.996094 125.109375 C 184.996094 123.003906 186.703125 121.296875 188.808594 121.296875 Z M 224.316406 91.207031 C 248.449219 104.203125 265.078125 131.578125 265.078125 163.246094 C 265.078125 194.910156 248.449219 222.285156 224.316406 235.28125 C 223.59375 235.671875 223.132812 236.421875 223.132812 237.246094 L 223.132812 237.316406 C 223.132812 238.53125 224.113281 239.515625 225.328125 239.515625 L 265.078125 239.515625 C 267.183594 239.515625 268.894531 237.804688 268.894531 235.699219 L 268.894531 197.566406 C 268.894531 195.460938 270.601562 193.753906 272.707031 193.753906 L 291.773438 193.753906 C 321.261719 193.753906 345.164062 169.847656 345.164062 140.363281 C 345.164062 110.878906 321.261719 86.972656 291.773438 86.972656 L 225.328125 86.972656 C 224.113281 86.972656 223.132812 87.957031 223.132812 89.171875 L 223.132812 89.242188 C 223.132812 90.066406 223.59375 90.816406 224.316406 91.207031 Z M 299.402344 140.363281 C 299.402344 150.890625 295.988281 159.429688 291.773438 159.429688 L 272.707031 159.429688 C 270.601562 159.429688 268.894531 157.722656 268.894531 155.617188 L 268.894531 125.109375 C 268.894531 123.003906 270.601562 121.296875 272.707031 121.296875 L 291.773438 121.296875 C 295.988281 121.296875 299.402344 129.835938 299.402344 140.363281 Z M 299.402344 140.363281 "/><path fill="#F6F3EC" d="M 70.589844 286.179688 L 70.589844 258.582031 L 81.777344 258.582031 C 83.410156 258.582031 84.910156 258.808594 86.28125 259.265625 C 87.648438 259.722656 88.835938 260.367188 89.839844 261.199219 C 90.847656 262.027344 91.632812 263.015625 92.195312 264.152344 C 92.757812 265.292969 93.042969 266.53125 93.042969 267.875 L 93.042969 276.929688 C 93.042969 278.269531 92.757812 279.5 92.195312 280.628906 C 91.632812 281.753906 90.847656 282.734375 89.839844 283.5625 C 88.835938 284.394531 87.648438 285.039062 86.28125 285.496094 C 84.910156 285.953125 83.410156 286.179688 81.777344 286.179688 Z M 79.117188 279.785156 L 80.972656 279.785156 C 81.75 279.785156 82.394531 279.695312 82.902344 279.523438 C 83.410156 279.347656 83.789062 279.070312 84.03125 278.699219 C 84.269531 278.320312 84.386719 277.839844 84.386719 277.25 L 84.386719 267.472656 C 84.386719 266.855469 84.269531 266.359375 84.03125 265.984375 C 83.789062 265.609375 83.410156 265.328125 82.902344 265.140625 C 82.394531 264.953125 81.75 264.859375 80.972656 264.859375 L 79.117188 264.859375 Z M 101.488281 286.582031 C 99.394531 286.582031 97.71875 286.085938 96.457031 285.09375 C 95.195312 284.101562 94.566406 282.585938 94.566406 280.546875 C 94.566406 278.9375 95.003906 277.609375 95.875 276.566406 C 96.746094 275.519531 98.085938 274.742188 99.898438 274.230469 C 101.707031 273.722656 104.023438 273.464844 106.839844 273.464844 L 106.839844 271.898438 C 106.839844 271.363281 106.648438 270.898438 106.273438 270.511719 C 105.898438 270.121094 105.351562 269.925781 104.625 269.925781 C 103.957031 269.925781 103.417969 270.101562 103.015625 270.449219 C 102.617188 270.796875 102.414062 271.238281 102.414062 271.777344 L 102.414062 271.9375 L 95.210938 271.9375 C 95.210938 271.910156 95.203125 271.882812 95.191406 271.855469 C 95.179688 271.832031 95.171875 271.804688 95.171875 271.777344 C 95.171875 271.75 95.171875 271.703125 95.171875 271.636719 C 95.171875 271.570312 95.171875 271.484375 95.171875 271.375 C 95.171875 269.472656 96.058594 267.96875 97.828125 266.867188 C 99.597656 265.769531 101.984375 265.222656 104.988281 265.222656 C 108.152344 265.222656 110.582031 265.796875 112.269531 266.949219 C 113.960938 268.101562 114.804688 269.832031 114.804688 272.140625 L 114.804688 280.589844 C 114.804688 280.9375 114.871094 281.207031 115.007812 281.394531 C 115.140625 281.578125 115.339844 281.671875 115.609375 281.671875 C 115.875 281.671875 116.144531 281.605469 116.414062 281.472656 L 116.414062 285.777344 C 115.984375 286.015625 115.40625 286.210938 114.683594 286.359375 C 113.957031 286.507812 113.207031 286.582031 112.429688 286.582031 C 111.277344 286.582031 110.378906 286.46875 109.738281 286.242188 C 109.089844 286.011719 108.628906 285.695312 108.347656 285.296875 C 108.066406 284.894531 107.859375 284.425781 107.722656 283.886719 C 107.347656 284.316406 106.871094 284.738281 106.296875 285.152344 C 105.71875 285.570312 105.042969 285.910156 104.265625 286.179688 C 103.488281 286.445312 102.5625 286.582031 101.488281 286.582031 Z M 104.386719 281.714844 C 104.867188 281.714844 105.289062 281.59375 105.652344 281.351562 C 106.011719 281.109375 106.300781 280.773438 106.519531 280.34375 C 106.730469 279.914062 106.839844 279.433594 106.839844 278.894531 L 106.839844 277.125 C 105.871094 277.125 105.066406 277.226562 104.425781 277.429688 C 103.78125 277.632812 103.296875 277.925781 102.976562 278.316406 C 102.65625 278.703125 102.496094 279.191406 102.496094 279.785156 C 102.496094 280.398438 102.65625 280.875 102.976562 281.210938 C 103.296875 281.546875 103.769531 281.714844 104.386719 281.714844 Z M 133.109375 286.621094 C 130.105469 286.621094 127.792969 286.011719 126.167969 284.792969 C 124.546875 283.570312 123.734375 281.417969 123.734375 278.335938 L 123.734375 271.335938 L 118.785156 271.335938 L 118.785156 265.621094 L 124.054688 265.621094 L 126.832031 259.066406 L 131.703125 259.066406 L 131.703125 265.621094 L 139.707031 265.621094 L 139.707031 271.335938 L 131.703125 271.335938 L 131.703125 277.570312 C 131.703125 278.132812 131.816406 278.65625 132.042969 279.140625 C 132.269531 279.625 132.6875 280.003906 133.289062 280.285156 C 133.894531 280.566406 134.757812 280.707031 135.886719 280.707031 C 136.582031 280.707031 137.285156 280.628906 138 280.46875 C 138.707031 280.308594 139.277344 280.09375 139.707031 279.824219 L 139.707031 285.457031 C 138.957031 285.832031 137.964844 286.121094 136.730469 286.320312 C 135.496094 286.523438 134.289062 286.621094 133.109375 286.621094 Z M 149.761719 286.582031 C 147.671875 286.582031 145.996094 286.085938 144.738281 285.09375 C 143.476562 284.101562 142.84375 282.585938 142.84375 280.546875 C 142.84375 278.9375 143.28125 277.609375 144.152344 276.566406 C 145.027344 275.519531 146.367188 274.742188 148.175781 274.230469 C 149.988281 273.722656 152.300781 273.464844 155.113281 273.464844 L 155.113281 271.898438 C 155.113281 271.363281 154.925781 270.898438 154.554688 270.511719 C 154.175781 270.121094 153.625 269.925781 152.902344 269.925781 C 152.230469 269.925781 151.695312 270.101562 151.292969 270.449219 C 150.890625 270.796875 150.691406 271.238281 150.691406 271.777344 L 150.691406 271.9375 L 143.488281 271.9375 C 143.488281 271.910156 143.480469 271.882812 143.46875 271.855469 C 143.453125 271.832031 143.449219 271.804688 143.449219 271.777344 C 143.449219 271.75 143.449219 271.703125 143.449219 271.636719 C 143.449219 271.570312 143.449219 271.484375 143.449219 271.375 C 143.449219 269.472656 144.332031 267.96875 146.101562 266.867188 C 147.875 265.769531 150.261719 265.222656 153.265625 265.222656 C 156.429688 265.222656 158.855469 265.796875 160.546875 266.949219 C 162.234375 268.101562 163.078125 269.832031 163.078125 272.140625 L 163.078125 280.589844 C 163.078125 280.9375 163.148438 281.207031 163.28125 281.394531 C 163.417969 281.578125 163.617188 281.671875 163.882812 281.671875 C 164.152344 281.671875 164.421875 281.605469 164.6875 281.472656 L 164.6875 285.777344 C 164.257812 286.015625 163.683594 286.210938 162.960938 286.359375 C 162.238281 286.507812 161.484375 286.582031 160.707031 286.582031 C 159.554688 286.582031 158.65625 286.46875 158.011719 286.242188 C 157.367188 286.011719 156.90625 285.695312 156.625 285.296875 C 156.339844 284.894531 156.132812 284.425781 156 283.886719 C 155.625 284.316406 155.148438 284.738281 154.570312 285.152344 C 153.996094 285.570312 153.316406 285.910156 152.539062 286.179688 C 151.761719 286.445312 150.835938 286.582031 149.761719 286.582031 Z M 152.660156 281.714844 C 153.144531 281.714844 153.566406 281.59375 153.925781 281.351562 C 154.292969 281.109375 154.578125 280.773438 154.792969 280.34375 C 155.007812 279.914062 155.113281 279.433594 155.113281 278.894531 L 155.113281 277.125 C 154.148438 277.125 153.34375 277.226562 152.699219 277.429688 C 152.054688 277.632812 151.574219 277.925781 151.253906 278.316406 C 150.929688 278.703125 150.769531 279.191406 150.769531 279.785156 C 150.769531 280.398438 150.929688 280.875 151.253906 281.210938 C 151.574219 281.546875 152.042969 281.714844 152.660156 281.714844 Z M 180.578125 286.179688 L 180.578125 258.582031 L 192.773438 258.582031 C 194.21875 258.582031 195.53125 258.929688 196.714844 259.625 C 197.894531 260.324219 198.839844 261.265625 199.546875 262.445312 C 200.261719 263.625 200.617188 264.925781 200.617188 266.347656 L 200.617188 266.75 C 200.617188 268.171875 200.261719 269.484375 199.546875 270.691406 C 198.839844 271.898438 197.894531 272.855469 196.714844 273.570312 C 195.53125 274.277344 194.21875 274.632812 192.773438 274.632812 L 184.761719 274.632812 L 184.761719 286.179688 Z M 184.761719 271.214844 L 191.765625 271.214844 C 192.625 271.214844 193.402344 271.015625 194.097656 270.609375 C 194.796875 270.207031 195.34375 269.660156 195.746094 268.960938 C 196.152344 268.261719 196.351562 267.472656 196.351562 266.585938 C 196.351562 265.730469 196.152344 264.953125 195.746094 264.253906 C 195.34375 263.554688 194.800781 263 194.117188 262.585938 C 193.433594 262.167969 192.648438 261.960938 191.765625 261.960938 L 184.761719 261.960938 Z M 212.042969 286.582031 C 209.84375 286.582031 208.078125 285.964844 206.753906 284.730469 C 205.421875 283.496094 204.757812 281.632812 204.757812 279.140625 L 204.757812 265.621094 L 208.824219 265.621094 L 208.824219 278.375 C 208.824219 280.089844 209.21875 281.363281 210.007812 282.199219 C 210.800781 283.03125 211.90625 283.445312 213.328125 283.445312 C 214.265625 283.445312 215.105469 283.210938 215.84375 282.742188 C 216.582031 282.269531 217.15625 281.632812 217.570312 280.828125 C 217.988281 280.023438 218.195312 279.125 218.195312 278.132812 L 218.195312 265.621094 L 222.21875 265.621094 L 222.21875 282.476562 C 222.21875 282.90625 222.3125 283.214844 222.5 283.402344 C 222.691406 283.59375 222.972656 283.6875 223.34375 283.6875 C 223.613281 283.6875 223.882812 283.660156 224.148438 283.605469 C 224.417969 283.550781 224.699219 283.417969 224.996094 283.203125 L 224.996094 285.816406 C 224.648438 286.058594 224.210938 286.246094 223.6875 286.382812 C 223.164062 286.515625 222.632812 286.582031 222.097656 286.582031 C 221.132812 286.582031 220.402344 286.441406 219.90625 286.160156 C 219.410156 285.878906 219.074219 285.480469 218.902344 284.972656 C 218.726562 284.460938 218.613281 283.886719 218.558594 283.242188 C 218.15625 283.96875 217.648438 284.578125 217.03125 285.074219 C 216.410156 285.570312 215.6875 285.945312 214.855469 286.199219 C 214.023438 286.453125 213.085938 286.582031 212.042969 286.582031 Z M 211.238281 262.484375 L 214.375 255.765625 L 218.15625 255.765625 L 218.195312 255.886719 L 214.132812 262.484375 Z M 239.480469 286.582031 C 238.113281 286.582031 236.878906 286.300781 235.777344 285.738281 C 234.679688 285.171875 233.804688 284.34375 233.160156 283.242188 L 232.796875 286.179688 L 229.542969 286.179688 L 229.542969 257.210938 L 233.566406 257.210938 L 233.566406 268.117188 C 234.15625 267.175781 234.964844 266.460938 235.996094 265.964844 C 237.03125 265.46875 238.230469 265.222656 239.597656 265.222656 C 241.371094 265.222656 242.859375 265.648438 244.0625 266.507812 C 245.269531 267.367188 246.191406 268.554688 246.820312 270.066406 C 247.449219 271.582031 247.765625 273.347656 247.765625 275.355469 L 247.765625 275.921875 C 247.765625 278.121094 247.417969 280.019531 246.71875 281.617188 C 246.019531 283.210938 245.054688 284.4375 243.824219 285.296875 C 242.589844 286.152344 241.140625 286.582031 239.480469 286.582031 Z M 238.675781 283.6875 C 240.148438 283.6875 241.355469 283.144531 242.292969 282.058594 C 243.230469 280.96875 243.699219 279.230469 243.699219 276.84375 L 243.699219 274.515625 C 243.699219 272.394531 243.230469 270.792969 242.292969 269.707031 C 241.355469 268.621094 240.148438 268.078125 238.675781 268.078125 C 237.199219 268.078125 235.976562 268.621094 235.015625 269.707031 C 234.046875 270.792969 233.566406 272.394531 233.566406 274.515625 L 233.566406 276.84375 C 233.566406 279.230469 234.046875 280.96875 235.015625 282.058594 C 235.976562 283.144531 237.199219 283.6875 238.675781 283.6875 Z M 260.398438 286.179688 L 260.398438 260.3125 L 252.996094 260.3125 L 252.996094 257.175781 L 264.382812 257.175781 L 264.382812 286.179688 Z M 252.996094 286.179688 L 252.996094 283.082031 L 271.378906 283.082031 L 271.378906 286.179688 Z M 285.339844 286.179688 L 285.339844 268.761719 L 277.976562 268.761719 L 277.976562 265.621094 L 289.363281 265.621094 L 289.363281 286.179688 Z M 277.976562 286.179688 L 277.976562 283.082031 L 296.324219 283.082031 L 296.324219 286.179688 Z M 285.179688 261.394531 L 285.179688 257.535156 L 288.960938 257.535156 L 288.960938 261.394531 Z M 309.960938 286.582031 C 308.699219 286.582031 307.515625 286.339844 306.402344 285.859375 C 305.289062 285.375 304.324219 284.683594 303.503906 283.785156 C 302.6875 282.886719 302.050781 281.816406 301.59375 280.566406 C 301.140625 279.320312 300.910156 277.921875 300.910156 276.363281 L 300.910156 275.398438 C 300.910156 273.84375 301.140625 272.441406 301.59375 271.191406 C 302.050781 269.949219 302.6875 268.875 303.503906 267.972656 C 304.324219 267.078125 305.28125 266.394531 306.378906 265.921875 C 307.480469 265.453125 308.6875 265.222656 310.003906 265.222656 L 310.484375 265.222656 C 312.144531 265.222656 313.609375 265.5625 314.867188 266.246094 C 316.128906 266.929688 317.121094 267.894531 317.847656 269.140625 C 318.570312 270.390625 318.933594 271.898438 318.933594 273.667969 L 315.3125 273.667969 C 315.3125 272.355469 315.097656 271.285156 314.671875 270.46875 C 314.242188 269.652344 313.65625 269.050781 312.921875 268.660156 C 312.183594 268.273438 311.316406 268.078125 310.324219 268.078125 C 308.875 268.078125 307.648438 268.605469 306.644531 269.664062 C 305.636719 270.722656 305.132812 272.355469 305.132812 274.550781 L 305.132812 277.25 C 305.132812 279.367188 305.621094 280.976562 306.601562 282.078125 C 307.578125 283.175781 308.859375 283.722656 310.445312 283.722656 C 311.410156 283.722656 312.261719 283.53125 313 283.140625 C 313.738281 282.75 314.3125 282.148438 314.726562 281.332031 C 315.144531 280.515625 315.351562 279.449219 315.351562 278.132812 L 318.933594 278.132812 C 318.933594 279.929688 318.566406 281.460938 317.828125 282.722656 C 317.089844 283.980469 316.082031 284.9375 314.808594 285.597656 C 313.535156 286.253906 312.078125 286.582031 310.445312 286.582031 Z M 331.722656 286.582031 C 329.605469 286.582031 327.976562 286.085938 326.839844 285.09375 C 325.699219 284.101562 325.128906 282.640625 325.128906 280.707031 C 325.128906 279.097656 325.5625 277.804688 326.433594 276.824219 C 327.308594 275.847656 328.714844 275.128906 330.660156 274.675781 C 332.605469 274.21875 335.171875 273.988281 338.363281 273.988281 L 338.363281 271.738281 C 338.363281 270.449219 338.035156 269.511719 337.378906 268.921875 C 336.722656 268.332031 335.613281 268.035156 334.058594 268.035156 C 332.636719 268.035156 331.539062 268.332031 330.757812 268.921875 C 329.980469 269.511719 329.59375 270.339844 329.59375 271.414062 L 329.59375 271.898438 L 325.894531 271.898438 C 325.839844 271.46875 325.804688 271.1875 325.789062 271.050781 C 325.777344 270.917969 325.773438 270.867188 325.773438 270.890625 C 325.773438 270.917969 325.777344 270.960938 325.789062 271.015625 C 325.804688 271.066406 325.8125 271.066406 325.8125 271.015625 C 325.8125 269.246094 326.570312 267.835938 328.085938 266.789062 C 329.601562 265.742188 331.632812 265.222656 334.179688 265.222656 C 336.886719 265.222656 338.933594 265.742188 340.316406 266.789062 C 341.695312 267.835938 342.386719 269.429688 342.386719 271.574219 L 342.386719 282.476562 C 342.386719 282.90625 342.492188 283.214844 342.707031 283.402344 C 342.921875 283.59375 343.207031 283.6875 343.554688 283.6875 C 344.171875 283.6875 344.707031 283.523438 345.164062 283.203125 L 345.164062 285.816406 C 344.816406 286.058594 344.386719 286.246094 343.875 286.382812 C 343.367188 286.515625 342.828125 286.582031 342.265625 286.582031 C 341.460938 286.582031 340.804688 286.480469 340.296875 286.277344 C 339.785156 286.078125 339.410156 285.738281 339.167969 285.253906 C 338.925781 284.769531 338.765625 284.101562 338.6875 283.242188 C 338.230469 284.074219 337.640625 284.738281 336.914062 285.234375 C 336.191406 285.730469 335.386719 286.078125 334.5 286.277344 C 333.617188 286.480469 332.691406 286.582031 331.722656 286.582031 Z M 332.976562 283.722656 C 334.207031 283.722656 335.21875 283.457031 336.011719 282.917969 C 336.800781 282.382812 337.390625 281.660156 337.78125 280.75 C 338.167969 279.835938 338.363281 278.816406 338.363281 277.691406 L 338.363281 276.445312 C 336.058594 276.445312 334.226562 276.570312 332.871094 276.824219 C 331.515625 277.078125 330.550781 277.496094 329.976562 278.074219 C 329.402344 278.648438 329.113281 279.460938 329.113281 280.503906 C 329.113281 281.578125 329.425781 282.382812 330.058594 282.917969 C 330.6875 283.457031 331.660156 283.722656 332.976562 283.722656 Z M 332.976562 283.722656 "/></svg>
